<svg width="68" height="68" viewBox="0 0 68 68" fill="none" xmlns="http://www.w3.org/2000/svg">
<path d="M24.7126 1.97604H62.9114C64.8444 1.97604 66.4114 3.54305 66.4114 5.47604V43.9829C66.4114 56.4093 56.3378 66.4829 43.9114 66.4829H24.7126C12.2862 66.4829 2.21265 56.4093 2.21265 43.9829V24.4761C2.21265 12.0496 12.2862 1.97604 24.7126 1.97604Z" stroke="white" stroke-width="3"/>
<path d="M58.9835 9.71541L27.2654 41.4338" stroke="white" stroke-width="3" stroke-linecap="round"/>
<path d="M58.9836 9.71541C52.9686 14.0497 37.5418 22.7184 23.955 22.7184C6.97144 22.7184 2.19482 35.9868 2.19482 41.8249" stroke="white" stroke-width="3" stroke-linecap="round"/>
<path d="M58.9834 9.7154C54.6491 15.7304 45.9804 31.1571 45.9804 44.744C45.9804 61.7275 32.712 66.5041 26.8739 66.5041" stroke="white" stroke-width="3" stroke-linecap="round"/>
<circle cx="23.1553" cy="45.1299" r="5.44513" stroke="white" stroke-width="3"/>
</svg>
