<svg width="86" height="86" viewBox="0 0 86 86" fill="none" xmlns="http://www.w3.org/2000/svg">
<path d="M8.16797 29.2495H41.2616" stroke="white" stroke-width="3" stroke-linecap="round"/>
<path d="M24.7148 9.16943L24.7148 76.1735" stroke="white" stroke-width="3" stroke-linecap="round"/>
<path d="M35.3958 9.07532L61.057 9.07532C62.9274 9.07532 63.7743 11.4139 62.3376 12.6115L46.6955 25.6512C45.2588 26.8488 46.1057 29.1874 47.9761 29.1874H55.0492C67.7518 29.1874 78.0492 39.655 78.0492 52.3576V52.3576C78.0492 65.0601 67.7518 75.5278 55.0492 75.5278H35.3958" stroke="white" stroke-width="3" stroke-linecap="round"/>
<path d="M63.2676 31.3114L47.0325 49.085" stroke="white" stroke-width="3" stroke-linecap="round"/>
<path d="M73.4329 39.441L46.9629 68.4194" stroke="white" stroke-width="3" stroke-linecap="round"/>
<path d="M42.4534 49.085L24.7148 29.6655" stroke="white" stroke-width="3" stroke-linecap="round"/>
<path d="M8.16797 76.1738L24.7148 29.6655" stroke="white" stroke-width="3" stroke-linecap="round"/>
<rect x="2.09058" y="2.04553" width="82.0361" height="82.0361" rx="6.5" stroke="white" stroke-width="3"/>
</svg>
