<svg width="92" height="75" viewBox="0 0 92 75" fill="none" xmlns="http://www.w3.org/2000/svg">
<mask id="path-1-inside-1_473_3535" fill="white">
<path fill-rule="evenodd" clip-rule="evenodd" d="M28.916 0.439148C13.452 0.439148 0.916016 12.9752 0.916016 28.4392V37.4642C0.916016 52.9282 13.452 65.4642 28.916 65.4642H52.302L60.3037 73.4659C62.2563 75.4185 65.4221 75.4185 67.3747 73.4659L80.7335 60.1072C81.1821 59.6586 81.5216 59.1646 81.761 58.6473C87.6952 53.513 91.4497 45.9271 91.4497 37.4642V28.4391C91.4497 12.9752 78.9137 0.439148 63.4497 0.439148H28.916Z"/>
</mask>
<path d="M52.302 65.4642L54.4233 63.3429L53.5446 62.4642H52.302V65.4642ZM67.3747 73.4659L65.2534 71.3446L65.2534 71.3446L67.3747 73.4659ZM80.7335 60.1072L82.8548 62.2285L82.8548 62.2285L80.7335 60.1072ZM81.761 58.6473L79.7981 56.3785L79.3098 56.8011L79.0385 57.3871L81.761 58.6473ZM3.91602 28.4392C3.91602 14.632 15.1089 3.43915 28.916 3.43915V-2.56085C11.7952 -2.56085 -2.08398 11.3183 -2.08398 28.4392H3.91602ZM3.91602 37.4642V28.4392H-2.08398V37.4642H3.91602ZM28.916 62.4642C15.1089 62.4642 3.91602 51.2713 3.91602 37.4642H-2.08398C-2.08398 54.5851 11.7952 68.4642 28.916 68.4642V62.4642ZM52.302 62.4642H28.916V68.4642H52.302V62.4642ZM50.1806 67.5855L58.1823 75.5872L62.425 71.3446L54.4233 63.3429L50.1806 67.5855ZM58.1823 75.5872C61.3065 78.7114 66.3719 78.7114 69.4961 75.5872L65.2534 71.3446C64.4724 72.1257 63.206 72.1257 62.425 71.3446L58.1823 75.5872ZM69.4961 75.5872L82.8548 62.2285L78.6122 57.9859L65.2534 71.3446L69.4961 75.5872ZM82.8548 62.2285C83.5499 61.5334 84.0941 60.7487 84.4835 59.9074L79.0385 57.3871C78.949 57.5805 78.8143 57.7837 78.6122 57.9859L82.8548 62.2285ZM88.4497 37.4642C88.4497 45.0197 85.1017 51.7899 79.7981 56.3785L83.7239 60.916C90.2887 55.2362 94.4497 46.8344 94.4497 37.4642H88.4497ZM88.4497 28.4391V37.4642H94.4497V28.4391H88.4497ZM63.4497 3.43915C77.2568 3.43915 88.4497 14.632 88.4497 28.4391H94.4497C94.4497 11.3183 80.5705 -2.56085 63.4497 -2.56085V3.43915ZM28.916 3.43915H63.4497V-2.56085H28.916V3.43915Z" fill="white" mask="url(#path-1-inside-1_473_3535)"/>
<path d="M19.3486 33.3922H29.9048" stroke="white" stroke-width="3" stroke-linecap="round"/>
<path d="M40.9048 33.3922H51.4609" stroke="white" stroke-width="3" stroke-linecap="round"/>
<path d="M62.4609 33.3922H73.0171" stroke="white" stroke-width="3" stroke-linecap="round"/>
</svg>
